<svg width="338" height="30" viewBox="0 0 338 30" fill="none" xmlns="http://www.w3.org/2000/svg">
<path fill-rule="evenodd" clip-rule="evenodd" d="M119.281 0.159503C112.204 0.681029 106.617 4.39297 104.509 9.97372C103.837 11.753 103.583 13.3886 103.65 15.5079C103.771 19.3475 105.194 22.4803 108.037 25.17C110.621 27.6153 113.959 29.1134 118.05 29.6634C119.4 29.8449 122.466 29.8453 123.76 29.664C127.264 29.173 130.085 28.0675 132.554 26.2189C136.639 23.16 138.733 18.2726 138.103 13.2714C137.874 11.4566 137.512 10.268 136.692 8.64001C134.445 4.16995 129.952 1.22486 123.987 0.311061C123.252 0.198383 120.122 0.097586 119.281 0.159503ZM33.8672 8.37271C33.8672 13.1108 33.9014 16.592 33.9547 17.2844C34.2377 20.9558 35.4431 23.8161 37.6028 25.9408C40.2041 28.4994 43.9987 29.7794 48.9744 29.7766C54.0285 29.7738 57.9844 28.364 60.5571 25.6491C62.0089 24.1169 63.1132 21.9359 63.605 19.6294C63.9886 17.8298 64.0195 17.0058 64.0212 8.53897L64.0229 0.597284H60.9875H57.9517L57.9216 8.82188C57.8953 16.0484 57.8748 17.135 57.7553 17.7764C57.1977 20.7636 55.9937 22.5355 53.8084 23.5846C52.6506 24.1405 51.5597 24.4084 50.0543 24.5068C44.6495 24.8595 41.2943 22.8574 40.2827 18.6759C39.968 17.3748 39.9507 16.8564 39.9493 8.6198L39.9475 0.597284H36.9073H33.8672V8.37271ZM69.775 14.9853V29.3733H72.8148H75.8552V24.0384V18.7035L81.0524 18.7081L86.2496 18.7129L87.1633 20.143C87.6662 20.9295 89.0482 23.0825 90.2348 24.9275C91.4217 26.7725 92.5445 28.5265 92.731 28.8253L93.0695 29.3684L96.5507 29.3709L100.032 29.3733L99.9146 29.1914C99.8505 29.0913 98.1915 26.5758 96.2281 23.6011C94.2651 20.6266 92.6651 18.1724 92.6731 18.1476C92.6811 18.1228 92.9857 18.0039 93.3496 17.8835C94.9689 17.3483 96.5497 16.2993 97.5033 15.127C98.7741 13.5644 99.305 11.9678 99.3109 9.6908C99.3147 8.31336 99.2284 7.68482 98.8909 6.6264C97.9792 3.76676 95.555 1.75592 92.0569 0.957955C90.4843 0.599145 90.4216 0.597284 79.8412 0.597284H69.775V14.9853ZM143.253 14.965L143.275 29.3329L156.565 29.3533L169.856 29.3738V26.7869V24.2H159.585H149.314V12.3987V0.597284H146.273H143.233L143.253 14.965ZM185.817 4.82146C184.629 7.14397 182.325 11.6449 180.696 14.8236C175.449 25.062 173.307 29.2648 173.307 29.3205C173.307 29.3505 174.753 29.3656 176.521 29.354L179.733 29.3329L181.429 26L183.126 22.6673L191.405 22.6656C196.742 22.6648 199.682 22.6923 199.682 22.7433C199.682 22.7868 200.431 24.2963 201.345 26.0978L203.007 29.3733H206.277H209.548L206.866 24.1394C205.389 21.2608 203.212 17.0141 202.027 14.7024C200.841 12.3906 198.728 8.27132 197.333 5.54845L194.794 0.59785L191.384 0.598338L187.974 0.598821L185.817 4.82146ZM212.913 14.9853V29.3733H215.829H218.746L218.749 18.7641C218.75 10.4081 218.773 8.18217 218.852 8.28275C218.907 8.35307 219.198 8.68041 219.499 9.01021C219.799 9.34007 221.48 11.2104 223.232 13.1665C224.984 15.1226 226.716 17.0523 227.081 17.4545C227.446 17.8568 228.1 18.5843 228.534 19.0711C228.969 19.558 230.094 20.8111 231.031 21.8559C233.115 24.1769 232.857 23.8886 235.55 26.8938L237.768 29.3701L240.46 29.3718L243.15 29.3733V14.9853V0.597284H240.234H237.316V10.6608C237.316 16.1958 237.284 20.7243 237.246 20.7243C237.208 20.7243 236.749 20.2423 236.227 19.6533C235.705 19.0643 235.208 18.5095 235.124 18.4206C235.04 18.3316 234.451 17.677 233.814 16.9656C230.71 13.4998 229.297 11.9258 229.026 11.6303C228.864 11.4522 228.452 10.998 228.113 10.6209C227.775 10.2438 227.382 9.80752 227.241 9.65136C227.101 9.49522 226.087 8.36718 224.991 7.14462C223.893 5.92205 222.856 4.76651 222.684 4.57668C222.514 4.38697 221.641 3.41401 220.745 2.4147L219.116 0.59769L216.015 0.597529L212.913 0.597284V14.9853ZM248.163 14.9853V29.3733H256.526C265.247 29.3733 265.688 29.3588 267.554 29.0119C271.218 28.3309 274.034 26.9219 276.224 24.674C278.214 22.6329 279.334 20.2411 279.801 17.0295C279.933 16.1189 279.86 12.9793 279.684 12.1157C279.25 9.96475 278.673 8.53542 277.598 6.94256C275.55 3.90717 271.975 1.74137 267.722 0.95844C265.806 0.605773 265.547 0.597284 256.663 0.597284H248.163V14.9853ZM295.081 14.9853V29.3733H298.121H301.161V14.9853V0.597284H298.121H295.081V14.9853ZM306.502 14.9853V29.3733H309.501H312.501V24.0384V18.7035H317.707H322.913L323.992 20.3808C324.584 21.3033 325.363 22.5128 325.722 23.0684C326.082 23.6241 326.642 24.4971 326.967 25.0084C327.293 25.5196 328.058 26.7109 328.666 27.6556L329.774 29.3733H333.224C336.144 29.3733 336.531 29.4391 336.691 29.4066C336.653 29.3081 335.046 26.8053 332.674 23.23C331.764 21.8593 331.245 21.0729 330.537 19.9968C330.229 19.53 329.835 18.9364 329.661 18.6775C329.487 18.4188 329.345 18.1814 329.345 18.1499C329.345 18.1184 329.631 18.0036 329.982 17.8945C331.402 17.4525 332.824 16.5816 333.82 15.5418C335.329 13.9698 336.001 12.1409 336.001 9.60997C336.001 5.16823 333.517 2.13551 328.955 1.00928C327.27 0.593486 327.383 0.597284 316.578 0.597284H306.502V14.9853ZM123.041 5.48961C127.664 6.16688 130.767 8.7458 131.743 12.722C131.983 13.6999 132.041 15.5746 131.86 16.6019C131.173 20.525 128.462 23.2346 124.213 24.2478C123.445 24.4308 121.835 24.6028 120.884 24.6033C118.708 24.6044 116.545 24.1198 114.889 23.2594C111.899 21.707 110.148 19.1141 109.871 15.8289C109.632 13.0064 110.495 10.4573 112.334 8.54882C113.909 6.91345 116.053 5.89133 118.747 5.49066C119.752 5.34121 122.024 5.34063 123.041 5.48961ZM89.3909 5.7305C90.7398 5.94575 91.6886 6.38513 92.3563 7.10387C93.1187 7.92431 93.4511 9.06275 93.275 10.2488C93.0033 12.0797 91.7728 13.14 89.4246 13.567C88.8424 13.6729 87.7546 13.692 82.2965 13.692H75.8552V9.6504V5.60882L82.2438 5.60916C87.523 5.6094 88.7641 5.6305 89.3909 5.7305ZM325.867 5.69507C327.922 5.9707 329.21 6.81976 329.785 8.27626C329.97 8.74426 330.046 9.88335 329.932 10.4776C329.675 11.8237 328.725 12.8121 327.197 13.3224C326.142 13.6749 325.684 13.6943 318.951 13.6724L312.541 13.6515L312.52 9.63018L312.498 5.60882H318.862C322.914 5.60882 325.458 5.64018 325.867 5.69507ZM266.068 5.92011C268.316 6.40147 269.903 7.19047 271.21 8.47812C272.918 10.1575 273.712 12.2221 273.715 14.9853C273.718 17.087 273.251 18.7366 272.232 20.2349C271.012 22.0265 269.111 23.2818 266.732 23.8685C265.284 24.2259 265.27 24.2266 259.563 24.2604L254.079 24.2929V14.9866V5.68038L259.646 5.70867C265.068 5.73622 265.234 5.74171 266.068 5.92011ZM194.14 11.9339C195.652 14.9236 196.911 17.4334 196.937 17.5113C196.98 17.645 196.676 17.6526 191.323 17.6526H185.662L188.502 12.0758C190.065 9.0085 191.353 6.4987 191.366 6.49846C191.379 6.49822 192.628 8.94417 194.14 11.9339Z" fill="#082B45"/>
<path d="M0.273438 29.1111V14.9266V0.742188H14.1576H28.0419V3.40668V6.07117H17.0701H6.09842V9.00993V11.9487H15.8743H25.6503L25.6292 14.476L25.6082 17.0034L15.8533 17.0233L6.09842 17.0431V20.5299V24.0166L17.0502 24.0365L28.002 24.0564L28.0231 26.5838L28.0441 29.1111H14.1588H0.273438Z" fill="#082B45"/>
<path d="M6.12675 6.08984H0.273438V11.9442H6.12675V6.08984Z" fill="#00ADF0"/>
<path d="M6.08172 17.0391H0.273438V24.0089H6.08172V17.0391Z" fill="#00ADF0"/>
</svg>
